# xmcd
#
# Track frame offsets:
#	150
#	8672
#	42356
#	72882
#	102012
#	127602
#	137269
#	159733
#	174840
#	208078
#
# Disc length: 3048 seconds
#
# Revision: 0
# Processed by: cddbd v1.5.2PL0 Copyright (c) Steve Scherf et al.
# Submitted via: audiograbber 1.83.01
#
DISCID=730be60a
DTITLE=The Ocean - Heliocentric
DYEAR=1900
DGENRE=Metal
TTITLE0=Shamayim
TTITLE1=Firmament
TTITLE2=The First Commandment Of The Luminaries
TTITLE3=Ptolem Was Wrong
TTITLE4=Metaphysics Of Hangman
TTITLE5=Catharsis Of A Heretic
TTITLE6=Swallowed By The Earth
TTITLE7=Epiphany
TTITLE8=The Origin Of Species
TTITLE9=The Origin Of God
EXTD=
EXTT0=
EXTT1=
EXTT2=
EXTT3=
EXTT4=
EXTT5=
EXTT6=
EXTT7=
EXTT8=
EXTT9=
PLAYORDER=
